# xmcd
#
# Track frame offsets:
# 150
# 10067
# 20521
# 30663
# 41057
# 54653
# 66402
# 81634
# 98898
# 116739
# 138397
# 153291
# 168392
# 184349
# 200569
# 215430
# 231777
# 250203
# 268908
# 293080
#
# Disc length: 4027 seconds
#
#
# Revision: 0
# Processed by: cddbd v1.5.1PL2 Copyright (c) Steve Scherf et al.
# Submitted via: FreeRIP 2.945 
#
DISCID=2b0fb914
DTITLE=all star tribute j.c. - an all star tribute to johnny cash, live
DYEAR=1999
DGENRE=tribute
TTITLE0=jackson w-willie nelson u sheryl crowe
TTITLE1=orange blossom special w-willie nelson u sheryl crowe
TTITLE2=I guess things happen that way w-chris isaak
TTITLE3=get rhythm w-chris isaak
TTITLE4=I still miss someone w- willie nelson
TTITLE5=ring of fire w- june carter cash
TTITLE6=train of love w-bob dylan
TTITLE7=man in black w-the mavericks
TTITLE8=the ballad of ira hayes w-kris kristofferson
TTITLE9=sunday morning coming down w-trisha yearwood
TTITLE10=ghost riders w-brooks and dunn
TTITLE11=tennessee flat top box w-lyle lovett
TTITLE12=give me love to rose w-bruce springsteen
TTITLE13=flehs and blood w-emmylou harris
TTITLE14=delias gone w-wyclef jean
TTITLE15=the long black veil w-dave mathews
TTITLE16=belshazzar w-the fairfield four
TTITLE17=dont take your guns to town w-u2
TTITLE18=folsom prison blues w-johnny cash
TTITLE19=I walk the line w-johnny cash
EXTD=
EXTT0=
EXTT1=
EXTT2=
EXTT3=
EXTT4=
EXTT5=
EXTT6=
EXTT7=
EXTT8=
EXTT9=
EXTT10=
EXTT11=
EXTT12=
EXTT13=
EXTT14=
EXTT15=
EXTT16=
EXTT17=
EXTT18=
EXTT19=
PLAYORDER=
